<ttFont>
          <CharString index="0">
            -30 720 11 callsubr
            -93 callsubr
            152 -8 callsubr
            152 hvcurveto
            -100 hmoveto
            -88 callgsubr
            return
          </CharString>
          <CharString index="1">
            -45 callgsubr
            -21 -21 -24 -25 21 -56 callsubr
            163 hmoveto
            -31 callsubr
            -25 -78 callgsubr
            25 -60 callsubr
            endchar
          </CharString>
          <CharString index="2">
            -105 callgsubr
            endchar
          </CharString>
          <CharString index="3">
            hlineto
            -193 -156 -157 -193 -18 callsubr
            350 vlineto
            -36 callsubr
            137 vhcurveto
            359 -300 -559 -100 559 -200 return
          </CharString>
          <CharString index="4">
            880 -52 callsubr
            -459 -104 callsubr
            return
          </CharString>
          <CharString index="5">
            rmoveto
            -165 103 -155 -103 33 -50 122 64 122 -64 rlineto
            endchar
          </CharString>
          <CharString index="6">
            -350 hlineto
            -138 -111 -58 callgsubr
            -74 hlineto
            -137 -112 -31 callgsubr
            350 -1 callsubr
            vlineto
            -193 156 -157 193 vhcurveto
            return
          </CharString>
          <CharString index="7">
            -103 callsubr
            100 hlineto
            return
          </CharString>
          <CharString index="8">
            rmoveto
            -63 hlineto
            -10 -3 -32 -28 vhcurveto
            -33 -17 42 -45 hhcurveto
            -47 -42 -40 -80 hvcurveto
            62 hlineto
            9 1 3 33 28 31 13 -42 51 hhcurveto
            49 40 30 12 callgsubr
          </CharString>
          <CharString index="9">
            -99 callgsubr
            100 hlineto
            return
          </CharString>
          <CharString index="10">
            274 986 -56 callgsubr
            -448 hlineto
            -84 -68 -68 -84 -84 -68 68 84 vhcurveto
            448 -101 -448 vlineto
            -7 vlineto
            -81 -4 -66 -64 -82 hhcurveto
            -84 -68 68 84 hvcurveto
            448 -100 -448 vlineto
            -139 113 -113 139 83 73 39 61 46 vhcurveto
            -61 46 74 -39 83 hhcurveto
            139 113 113 139 hvcurveto
            return
          </CharString>
          <CharString index="11">
            rmoveto
            -169 -99 24 -53 183 66 rlineto
            endchar
          </CharString>
          <CharString index="12">
            193 -128 -23 callsubr
            vhcurveto
            -233 -100 callgsubr
            -1 callgsubr
            return
          </CharString>
          <CharString index="13">
            49 772 -41 callsubr
            -100 -349 hlineto
            -57 -45 -44 -57 -56 -44 50 63 vhcurveto
            337 -101 -349 vlineto
            -57 -45 -44 -57 -56 -45 44 57 vhcurveto
            349 -100 -349 vlineto
            -111 91 -90 110 61 56 27 43 37 vhcurveto
            -43 37 53 -27 59 hhcurveto
            112 90 90 111 hvcurveto
            return
          </CharString>
          <CharString index="14">
            151 -101 123 -152 vhcurveto
            -86 callgsubr
            return
          </CharString>
          <CharString index="15">
            101 857 200 rmoveto
            110 -89 90 -111 vhcurveto
            -408 -40 callsubr
            558 100 -558 -28 callgsubr
            -111 90 -89 110 hvcurveto
            408 hlineto
            56 44 -45 -55 -55 -44 -45 -56 hvcurveto
            -608 -100 return
          </CharString>
          <CharString index="16">
            155 -104 155 104 -33 49 -122 -63 -122 63 rlineto
            endchar
          </CharString>
          <CharString index="17">
            -75 callsubr
            574 -66 callgsubr
            return
          </CharString>
          <CharString index="18">
            -275 vlineto
            -97 -77 -78 -97 vhcurveto
            -55 hlineto
            -96 -78 78 97 -44 callgsubr
            return
          </CharString>
          <CharString index="19">
            -92 callsubr
            608 -19 callgsubr
            return
          </CharString>
          <CharString index="20">
            -85 callsubr
            20 13 25 23 19 hvcurveto
            return
          </CharString>
          <CharString index="21">
            44 -71 callgsubr
            -38 28 -32 36 -5 vhcurveto
            -8 -32 -12 -20 0 vvcurveto
            64 -1 rlineto
            0 40 60 2 65 vhcurveto
            return
          </CharString>
          <CharString index="22">
            -30 -23 -11 -38 -24 -84 callsubr
            return
          </CharString>
          <CharString index="23">
            vvcurveto
            -49 41 -17 50 53 28 11 5 18 vhcurveto
            65 vlineto
            -7 -18 -36 -11 -23 hhcurveto
            -27 -11 7 17 return
          </CharString>
          <CharString index="24">
            147 682 203 rmoveto
            119 19 91 103 125 vvcurveto
            -73 callgsubr
            307 hlineto
            210 -200 rlineto
            135 hlineto
            return
          </CharString>
          <CharString index="25">
            hlineto
            -96 -58 79 97 96 58 79 96 hvcurveto
            174 hlineto
            96 57 -79 -96 hvcurveto
            return
          </CharString>
          <CharString index="26">
            rmoveto
            24 -21 21 -24 -78 callgsubr
            24 21 20 25 vhcurveto
            endchar
          </CharString>
          <CharString index="27">
            -41 557 157 rmoveto
            83 24 61 79 90 vvcurveto
            110 -89 90 -111 vhcurveto
            -429 -14 callsubr
            451 329 -32 callgsubr
            -277 -99 203 hlineto
            156 -149 rlineto
            136 hlineto
            return
          </CharString>
          <CharString index="28">
            rlineto
            2 10 12 2 11 hhcurveto
            15 26 -3 -15 -12 -20 -6 -26 -26 -27 7 9 -18 hvcurveto
            -62 vlineto
            -2 18 13 -6 48 hhcurveto
            52 59 17 54 53 -46 11 -28 hvcurveto
            return
          </CharString>
          <CharString index="29">
            -46 39 -39 64 63 40 39 46 46 -36 39 -67 -60 -43 -39 -46 vhcurveto
            69 -64 callgsubr
          </CharString>
          <CharString index="30">
            -84 callgsubr
            endchar
          </CharString>
          <CharString index="31">
            -100 -272 vlineto
            -116 156 -192 107 -143 8 rrcurveto
            1 -54 -14 callsubr
            443 vlineto
            return
          </CharString>
          <CharString index="32">
            -104 646 -67 callsubr
            -552 return
          </CharString>
          <CharString index="33">
            rmoveto
            -73 callsubr
          </CharString>
          <CharString index="34">
            183 -66 24 53 -169 99 rlineto
            endchar
          </CharString>
          <CharString index="35">
            55 hlineto
            151 123 123 152 0 callgsubr
            return
          </CharString>
          <CharString index="36">
            788 188 -26 callsubr
            -232 470 -45 callsubr
            -284 -158 rmoveto
            92 -74 75 -92 -92 -75 -75 -92 -24 callsubr
            337 -312 rmoveto
            -24 callgsubr
            -420 312 -25 callgsubr
            return
          </CharString>
          <CharString index="37">
            hlineto
            -83 -67 67 83 hvcurveto
            -17 callsubr
            vlineto
            -34 callgsubr
            return
          </CharString>
          <CharString index="38">
            -112 -138 return
          </CharString>
          <CharString index="39">
            -63 callgsubr
            -724 return
          </CharString>
          <CharString index="40">
            -63 callsubr
            -574 return
          </CharString>
          <CharString index="41">
            rmoveto
            -113 -101 20 -5 callgsubr
            111 68 rmoveto
            -111 -101 18 -5 callgsubr
            endchar
          </CharString>
          <CharString index="42">
            72 rmoveto
            -86 callsubr
            return
          </CharString>
          <CharString index="43">
            -100 -385 hlineto
            228 -148 -281 157 -195 hhcurveto
            -50 -700 100 return
          </CharString>
          <CharString index="44">
            101 rmoveto
            -473 350 473 101 return
          </CharString>
          <CharString index="45">
            103 851 -52 callsubr
            -809 -100 647 hlineto
            -647 -500 rlineto
            -100 809 100 -643 vlineto
            643 500 rlineto
            return
          </CharString>
          <CharString index="46">
            -57 callgsubr
            99 hlineto
            return
          </CharString>
          <CharString index="47">
            21 20 25 vhcurveto
            return
          </CharString>
          <CharString index="48">
            rmoveto
            -362 -101 362 hlineto
            return
          </CharString>
          <CharString index="49">
            104 vlineto
            -27 -26 -54 -29 -45 -83 -110 54 -80 hhcurveto
            -44 -58 -22 -28 -27 hvcurveto
            -103 vlineto
            26 25 55 29 45 83 109 -53 80 hhcurveto
            52 51 22 27 27 hvcurveto
            return
          </CharString>
          <CharString index="50">
            -521 -52 callgsubr
            return
          </CharString>
          <CharString index="51">
            -20 25 24 -60 callsubr
            return
          </CharString>
          <CharString index="52">
            293 hlineto
            97 59 -77 -97 -99 -59 -77 -97 hvcurveto
            -246 -101 246 hlineto
            154 103 122 155 return
          </CharString>
          <CharString index="53">
            665 -102 callsubr
          </CharString>
          <CharString index="54">
            -52 callsubr
            -765 -100 665 -250 hlineto
            -138 -112 -58 callgsubr
            -32 callsubr
            return
          </CharString>
          <CharString index="55">
            700 rmoveto
            return
          </CharString>
          <CharString index="56">
            rmoveto
            -39 callsubr
            hlineto
            return
          </CharString>
          <CharString index="57">
            -207 -185 -27 callgsubr
            203 -178 -9 callsubr
            -246 216 248 222 rlineto
            return
          </CharString>
          <CharString index="58">
            756 1505 -63 callgsubr
            -1084 -104 callsubr
            725 -67 callgsubr
            return
          </CharString>
          <CharString index="59">
            171 -41 callsubr
            -4 callsubr
            return
          </CharString>
          <CharString index="60">
            156 194 return
          </CharString>
          <CharString index="61">
            753 100 rmoveto
            -569 600 -100 -700 hlineto
            0 669 vlineto
            return
          </CharString>
          <CharString index="62">
            rmoveto
            -383 -628 rlineto
            96 hlineto
            383 628 rlineto
            return
          </CharString>
          <CharString index="63">
            709 -91 callgsubr
          </CharString>
          <CharString index="64">
            -323 -100 323 hlineto
            152 122 123 152 hvcurveto
            return
          </CharString>
          <CharString index="65">
            -67 650 -41 callsubr
            -100 -226 -331 -100 331 -224 100 hlineto
            -478 -41 callsubr
            -100 -14 callsubr
            return
          </CharString>
          <CharString index="66">
            550 rmoveto
            return
          </CharString>
          <CharString index="67">
            -19 callsubr
            55 45 45 55 hvcurveto
            return
          </CharString>
          <CharString index="68">
            -489 -100 489 return
          </CharString>
          <CharString index="69">
            -26 724 277 rmoveto
            153 -103 122 -154 vhcurveto
            -395 -552 102 451 -55 callsubr
            hvcurveto
            return
          </CharString>
          <CharString index="70">
            907 -96 callsubr
          </CharString>
          <CharString index="71">
            -33 callgsubr
            112 return
          </CharString>
          <CharString index="72">
            -178 -40 callgsubr
            return
          </CharString>
          <CharString index="73">
            -69 callsubr
            hvcurveto
            return
          </CharString>
          <CharString index="74">
            576 rmoveto
            -22 callsubr
            6 3 -2 -7 hvcurveto
            -34 -203 -83 203 -34 vlineto
            -7 -2 -2 -8 vhcurveto
            -193 -84 194 hlineto
            35 57 25 68 hvcurveto
            return
          </CharString>
          <CharString index="75">
            -415 -100 415 hlineto
            194 156 -53 callgsubr
            return
          </CharString>
          <CharString index="76">
            24 -21 21 return
          </CharString>
          <CharString index="77">
            11 hlineto
            -87 callsubr
            19 hlineto
            endchar
          </CharString>
          <CharString index="78">
            138 2 callsubr
            -138 vhcurveto
            return
          </CharString>
          <CharString index="79">
            -138 376 451 rmoveto
            -15 callgsubr
            -451 100 hlineto
            return
          </CharString>
          <CharString index="80">
            rlineto
            11 9 6 14 14 vvcurveto
            14 -6 14 -11 10 vhcurveto
            return
          </CharString>
          <CharString index="81">
            rmoveto
            91 -74 75 -92 -92 -75 -75 -91 -24 callsubr
            return
          </CharString>
          <CharString index="82">
            rmoveto
            122 -93 33 -48 vhcurveto
            -123 hlineto
            -49 -92 -33 -122 hvcurveto
            -64 vlineto
            -122 92 -32 49 vhcurveto
            123 hlineto
            48 93 32 122 hvcurveto
            return
          </CharString>
          <CharString index="83">
            -92 75 -75 92 92 74 75 92 vhcurveto
            return
          </CharString>
          <CharString index="84">
            157 -193 return
          </CharString>
          <CharString index="85">
            35 -25 57 -67 vhcurveto
            -194 -84 194 hlineto
            return
          </CharString>
          <CharString index="86">
            -23 callgsubr
            endchar
          </CharString>
          <CharString index="87">
            110 -90 90 -110 vhcurveto
            return
          </CharString>
          <CharString index="88">
            hlineto
            -55 -45 45 55 return
          </CharString>
          <CharString index="89">
            -3 callgsubr
            100 return
          </CharString>
          <CharString index="90">
            200 14 callsubr
            return
          </CharString>
          <CharString index="91">
            194 hvcurveto
            return
          </CharString>
          <CharString index="92">
            354 100 -808 -100 354 return
          </CharString>
          <CharString index="93">
            -550 100 return
          </CharString>
          <CharString index="94">
            hlineto
            69 56 -56 -69 -69 -56 -56 -69 hvcurveto
            return
          </CharString>
          <CharString index="95">
            hlineto
            193 return
          </CharString>
          <CharString index="96">
            rmoveto
            -134 -84 51 -253 83 hlineto
            return
          </CharString>
          <CharString index="97">
            55 45 -45 -55 return
          </CharString>
          <CharString index="98">
            rlineto
            132 hlineto
            return
          </CharString>
          <CharString index="99">
            101 124 return
          </CharString>
          <CharString index="100">
            125 100 -125 187 -100 -187 -125 -100 125 return
          </CharString>
          <CharString index="101">
            rmoveto
            124 -101 101 -124 vhcurveto
            return
          </CharString>
          <CharString index="102">
            112 -112 return
          </CharString>
          <CharString index="103">
            -99 -550 return
          </CharString>
          <CharString index="104">
            -96 -77 -78 -96 -1 vhcurveto
            -77 -100 77 hlineto
            143 1 return
          </CharString>
          <CharString index="105">
            hlineto
            110 return
          </CharString>
          <CharString index="106">
            -100 -350 return
          </CharString>
          <CharString index="107">
            vhcurveto
            260 return
          </CharString>
          <CharString index="108">
            -110 90 -9 callgsubr
            return
          </CharString>
          <CharString index="109">
            -112 112 return
          </CharString>
          <CharString index="110">
            hvcurveto
            355 return
          </CharString>
          <CharString index="111">
            hlineto
            -40 -183 rlineto
            99 hlineto
            40 183 rlineto
            return
          </CharString>
          <CharString index="112">
            -233 -83 callgsubr
            return
          </CharString>
          <CharString index="113">
            hlineto
            40 181 rlineto
            -99 hlineto
            -40 -181 rlineto
            return
          </CharString>
          <CharString index="114">
            hvcurveto
            64 vlineto
            98 79 4 9 vhcurveto
            123 hlineto
            return
          </CharString>
          <CharString index="115">
            -200 -51 callsubr
            endchar
          </CharString>
          <CharString index="116">
            174 hlineto
            152 -8 callsubr
            152 return
          </CharString>
          <CharString index="117">
            rlineto
            114 hlineto
            return
          </CharString>
          <CharString index="118">
            276 rmoveto
            return
          </CharString>
          <CharString index="119">
            -56 -44 45 55 55 44 45 56 hvcurveto
            return
          </CharString>
          <CharString index="120">
            -52 callgsubr
            100 return
          </CharString>
          <CharString index="121">
            -100 -200 return
          </CharString>
          <CharString index="122">
            hlineto
            -124 -101 -101 -124 hvcurveto
            return
          </CharString>
          <CharString index="123">
            193 -129 -23 callsubr
            return
          </CharString>
          <CharString index="124" raw="1">
            831df755 0b  
          </CharString>
        <CharString name=".notdef">
          -414 endchar
        </CharString>
        <CharString name="A">
          -100 callsubr
          endchar
        </CharString>
        <CharString name="AE">
          -49 callsubr
          endchar
        </CharString>
        <CharString name="AEacute">
          -49 callsubr
          -422 597 -96 callsubr
        </CharString>
        <CharString name="Aacute">
          -100 callsubr
          -239 -37 callsubr
        </CharString>
        <CharString name="Abreve">
          -100 callsubr
          -255 892 -102 callgsubr
        </CharString>
        <CharString name="Acircumflex">
          -100 callsubr
          -244 -54 callgsubr
        </CharString>
        <CharString name="Adieresis">
          -100 callsubr
          -440 802 -106 callsubr
        </CharString>
        <CharString name="Agrave">
          -100 callsubr
          -608 821 -74 callsubr
        </CharString>
        <CharString name="Amacron">
          -100 callsubr
          -280 762 -42 callgsubr
        </CharString>
        <CharString name="Aogonek">
          -103 callsubr
          -30 callsubr
        </CharString>
        <CharString name="Aring">
          -100 callsubr
          -507 821 rmoveto
          -78 callsubr
        </CharString>
        <CharString name="Atilde">
          -100 callsubr
          -265 874 -99 callsubr
        </CharString>
        <CharString name="B">
          152 908 200 rmoveto
          87 -56 74 -78 27 vhcurveto
          21 32 13 38 42 vvcurveto
          -20 callsubr
          -524 -21 callgsubr
          424 -39 callgsubr
          -374 -100 474 -39 callgsubr
          -474 -100 474 -18 callgsubr
          89 111 hvcurveto
          endchar
        </CharString>
        <CharString name="C">
          65 817 100 rmoveto
          -451 -101 callgsubr
          endchar
        </CharString>
        <CharString name="Cacute">
          65 817 100 rmoveto
          -451 -101 callgsubr
          -175 -37 callsubr
        </CharString>
        <CharString name="Ccaron">
          65 817 100 rmoveto
          -451 -101 callgsubr
          -485 -43 callgsubr
        </CharString>
        <CharString name="Ccedilla">
          65 817 100 rmoveto
          -451 -103 callgsubr
          89 -76 callgsubr
          307 hlineto
          endchar
        </CharString>
        <CharString name="Ccircumflex">
          65 817 100 rmoveto
          -451 -101 callgsubr
          -170 -54 callgsubr
        </CharString>
        <CharString name="Cdotaccent">
          65 817 100 rmoveto
          -451 -101 callgsubr
          -285 802 -81 callsubr
        </CharString>
        <CharString name="D">
          164 909 -16 callgsubr
          -503 -21 callgsubr
          -68 callgsubr
          hvcurveto
          endchar
        </CharString>
        <CharString name="Dcaron">
          164 909 -16 callgsubr
          -503 -21 callgsubr
          -68 callgsubr
          hvcurveto
          -588 499 -91 callgsubr
        </CharString>
        <CharString name="Dcroat">
          -55 callgsubr
        </CharString>
        <CharString name="E">
          -89 callgsubr
          endchar
        </CharString>
        <CharString name="Eacute">
          -89 callgsubr
          -112 607 -96 callsubr
        </CharString>
        <CharString name="Ebreve">
          -89 callgsubr
          -126 592 -102 callgsubr
        </CharString>
        <CharString name="Ecaron">
          -89 callgsubr
          -424 549 -91 callgsubr
        </CharString>
        <CharString name="Ecircumflex">
          -89 callgsubr
          -117 505 -102 callsubr
        </CharString>
        <CharString name="Edieresis">
          -89 callgsubr
          -313 502 -106 callsubr
        </CharString>
        <CharString name="Edotaccent">
          -89 callgsubr
          -224 502 -81 callsubr
        </CharString>
        <CharString name="Egrave">
          -89 callgsubr
          -481 521 -74 callsubr
        </CharString>
        <CharString name="Emacron">
          -89 callgsubr
          -151 462 -42 callgsubr
        </CharString>
        <CharString name="Eng">
          153 858 700 rmoveto
          -64 callsubr
          596 hlineto
          205 -32 304 -211 56 -267 rrcurveto
          -106 -29 -97 -78 -115 hhcurveto
          -32 callsubr
          endchar
        </CharString>
        <CharString name="Eogonek">
          -75 callgsubr
          575 hlineto
          -87 callsubr
          79 -67 callgsubr
          endchar
        </CharString>
        <CharString name="Eth">
          -55 callgsubr
        </CharString>
        <CharString name="Euro">
          256 687 500 rmoveto
          -331 hlineto
          60 37 63 40 82 hhcurveto
          451 100 -451 hlineto
          -140 -106 -82 -118 -48 hvcurveto
          -106 hlineto
          -35 -100 rlineto
          116 hlineto
          -2 -17 -1 -16 -17 vvcurveto
          -17 1 -17 2 -16 vhcurveto
          -151 hlineto
          -35 -100 rlineto
          211 hlineto
          -119 48 106 -81 140 hhcurveto
          451 100 -451 hlineto
          -82 -63 39 61 -37 hvcurveto
          226 hlineto
          35 100 rlineto
          -297 hlineto
          -3 16 -1 17 17 vvcurveto
          17 1 17 3 16 vhcurveto
          332 hlineto
          endchar
        </CharString>
        <CharString name="F">
          37 809 -52 callsubr
          -725 -21 callgsubr
          625 hlineto
          -86 8 callsubr
        </CharString>
        <CharString name="G">
          91 817 -6 callgsubr
          -524 -100 424 -200 -351 -101 callgsubr
          endchar
        </CharString>
        <CharString name="Gbreve">
          93 817 -6 callgsubr
          -524 -100 424 -200 -351 -101 callgsubr
          -203 892 -102 callgsubr
        </CharString>
        <CharString name="Gcircumflex">
          93 817 -6 callgsubr
          -524 -100 424 -200 -351 -101 callgsubr
          -186 -54 callgsubr
        </CharString>
        <CharString name="Gcommaaccent">
          93 817 -6 callgsubr
          -524 -100 424 -200 -351 -101 callgsubr
          -286 -69 callgsubr
        </CharString>
        <CharString name="Gdotaccent">
          93 817 -6 callgsubr
          -524 -100 424 -200 -351 -101 callgsubr
          -301 802 -81 callsubr
        </CharString>
        <CharString name="H">
          -22 callgsubr
          endchar
        </CharString>
        <CharString name="Hbar">
          118 13 callsubr
          470 497 100 -497 hlineto
          639 130 rmoveto
          -100 -300 -39 callsubr
          -300 18 callgsubr
        </CharString>
        <CharString name="Hcircumflex">
          -22 callgsubr
          439 -54 callgsubr
        </CharString>
        <CharString name="I">
          -61 callgsubr
          endchar
        </CharString>
        <CharString name="IJ">
          353 13 callsubr
          hlineto
          886 -53 callsubr
          endchar
        </CharString>
        <CharString name="Iacute">
          -61 callgsubr
          116 -37 callsubr
        </CharString>
        <CharString name="Ibreve">
          -61 callgsubr
          93 892 -102 callgsubr
        </CharString>
        <CharString name="Icircumflex">
          -61 callgsubr
          110 -54 callgsubr
        </CharString>
        <CharString name="Idieresis">
          -61 callgsubr
          -86 802 -106 callsubr
        </CharString>
        <CharString name="Idotaccent">
          -61 callgsubr
          -5 808 -81 callsubr
        </CharString>
        <CharString name="Igrave">
          -61 callgsubr
          -253 821 -74 callsubr
        </CharString>
        <CharString name="Imacron">
          -61 callgsubr
          68 762 -42 callgsubr
        </CharString>
        <CharString name="Iogonek">
          -57 callsubr
          -30 callsubr
        </CharString>
        <CharString name="Itilde">
          -61 callgsubr
          89 874 -99 callsubr
        </CharString>
        <CharString name="J">
          85 802 -53 callsubr
          endchar
        </CharString>
        <CharString name="Jcircumflex">
          85 802 -53 callsubr
          -205 455 -102 callsubr
        </CharString>
        <CharString name="K">
          104 482 415 rmoveto
          397 285 rlineto
          -146 hlineto
          -549 -390 rlineto
          390 -100 -700 100 200 vlineto
          222 160 357 -360 rlineto
          135 hlineto
          endchar
        </CharString>
        <CharString name="Kcommaaccent">
          104 482 415 rmoveto
          397 285 rlineto
          -146 hlineto
          -549 -390 rlineto
          390 -100 -700 100 200 vlineto
          222 160 357 -360 rlineto
          135 hlineto
          -392 -93 -105 callsubr
        </CharString>
        <CharString name="L">
          -26 -46 callsubr
          endchar
        </CharString>
        <CharString name="Lacute">
          -26 -46 callsubr
          -446 908 -96 callsubr
        </CharString>
        <CharString name="Lcaron">
          -26 -46 callsubr
          -312 678 -105 callsubr
        </CharString>
        <CharString name="Lcommaaccent">
          -26 -46 callsubr
          -312 -113 -105 callsubr
        </CharString>
        <CharString name="Ldot">
          161 -46 callsubr
          134 356 rmoveto
          -77 callsubr
        </CharString>
        <CharString name="Lslash">
          23 553 488 rmoveto
          -320 -98 rlineto
          310 -100 -341 vlineto
          -130 -39 rlineto
          -110 vlineto
          130 39 rlineto
          -249 669 100 -569 180 vlineto
          320 98 rlineto
          endchar
        </CharString>
        <CharString name="M">
          287 588 -8 callgsubr
          -36 callsubr
          138 vhcurveto
          54 -600 15 callgsubr
          -154 hlineto
          -127 -112 -69 -101 -61 hvcurveto
          101 -62 -111 69 -127 hhcurveto
          -154 -21 callgsubr
          54 hlineto
          138 112 -34 callsubr
          -350 100 vlineto
          endchar
        </CharString>
        <CharString name="N">
          -80 callgsubr
          endchar
        </CharString>
        <CharString name="Nacute">
          -80 callgsubr
          482 -37 callsubr
        </CharString>
        <CharString name="Ncaron">
          -80 callgsubr
          132 -43 callgsubr
        </CharString>
        <CharString name="Ncommaaccent">
          -80 callgsubr
          347 -103 -105 callsubr
        </CharString>
        <CharString name="Ntilde">
          -80 callgsubr
          426 874 -99 callsubr
        </CharString>
        <CharString name="O">
          -107 callgsubr
          endchar
        </CharString>
        <CharString name="OE">
          794 1543 -68 callsubr
          -89 hlineto
          55 -55 -76 34 -89 hhcurveto
          -233 -100 callgsubr
          -1 callgsubr
          89 76 33 55 55 hvcurveto
          -88 724 vlineto
          -944 600 rmoveto
          129 91 -111 -139 -142 -91 -108 -129 hvcurveto
          -233 hlineto
          -138 -84 -74 callgsubr
          138 84 -31 callgsubr
          1092 8 callsubr
        </CharString>
        <CharString name="Oacute">
          -107 callgsubr
          -173 557 -96 callsubr
        </CharString>
        <CharString name="Obreve">
          -107 callgsubr
          -195 542 -102 callgsubr
        </CharString>
        <CharString name="Ocircumflex">
          -107 callgsubr
          -178 455 -102 callsubr
        </CharString>
        <CharString name="Odieresis">
          -107 callgsubr
          -374 452 -106 callsubr
        </CharString>
        <CharString name="Ograve">
          -107 callgsubr
          -542 471 -74 callsubr
        </CharString>
        <CharString name="Ohungarumlaut">
          -107 callgsubr
          -277 535 -66 callsubr
        </CharString>
        <CharString name="Omacron">
          -107 callgsubr
          -220 412 -42 callgsubr
        </CharString>
        <CharString name="Oslash">
          -77 callgsubr
          endchar
        </CharString>
        <CharString name="Oslashacute">
          -77 callgsubr
          -163 557 -96 callsubr
        </CharString>
        <CharString name="Otilde">
          -107 callgsubr
          -199 524 -99 callsubr
        </CharString>
        <CharString name="P">
          124 892 450 rmoveto
          -73 callgsubr
          402 hlineto
          -36 callsubr
          138 hvcurveto
          endchar
        </CharString>
        <CharString name="Q">
          849 -84 rmoveto
          -117 112 rlineto
          116 54 72 123 145 vvcurveto
          -95 callsubr
          8 9 0 1 8 hvcurveto
          90 -85 rlineto
          106 434 rmoveto
          -119 -62 -100 -106 -25 vhcurveto
          -87 85 rlineto
          -140 hlineto
          95 -91 rlineto
          -154 hlineto
          -138 -84 -74 callgsubr
          138 84 -31 callgsubr
          -1 callgsubr
          138 83 -34 callsubr
          endchar
        </CharString>
        <CharString name="R">
          -83 callsubr
          endchar
        </CharString>
        <CharString name="Racute">
          -83 callsubr
          -259 -37 callsubr
        </CharString>
        <CharString name="Rcaron">
          -83 callsubr
          -579 -43 callgsubr
        </CharString>
        <CharString name="Rcommaaccent">
          -83 callsubr
          -364 -103 -105 callsubr
        </CharString>
        <CharString name="S">
          -88 callsubr
          endchar
        </CharString>
        <CharString name="Sacute">
          -88 callsubr
          -237 707 -96 callsubr
        </CharString>
        <CharString name="Scaron">
          -88 callsubr
          -559 649 -91 callgsubr
        </CharString>
        <CharString name="Scedilla">
          -92 callsubr
          371 -76 callgsubr
          182 -19 callgsubr
          endchar
        </CharString>
        <CharString name="Scircumflex">
          -88 callsubr
          -252 605 -102 callsubr
        </CharString>
        <CharString name="T">
          -26 callgsubr
          endchar
        </CharString>
        <CharString name="Tbar">
          39 614 -6 callgsubr
          -150 200 -15 callsubr
          -200 -150 -100 150 -300 100 300 150 hlineto
          endchar
        </CharString>
        <CharString name="Tcaron">
          -26 callgsubr
          -205 -43 callgsubr
        </CharString>
        <CharString name="Tcommaaccent">
          -26 callgsubr
          10 -69 callgsubr
        </CharString>
        <CharString name="Thorn">
          128 892 -8 callgsubr
          -29 callsubr
          -458 101 -100 -701 100 500 -51 callgsubr
          402 hlineto
          -36 callsubr
          138 hvcurveto
          endchar
        </CharString>
        <CharString name="U">
          -106 callgsubr
          endchar
        </CharString>
        <CharString name="Uacute">
          -106 callgsubr
          -221 207 -96 callsubr
        </CharString>
        <CharString name="Ubreve">
          -106 callgsubr
          -244 192 -102 callgsubr
        </CharString>
        <CharString name="Ucircumflex">
          -106 callgsubr
          -227 105 -102 callsubr
        </CharString>
        <CharString name="Udieresis">
          -106 callgsubr
          -423 102 -106 callsubr
        </CharString>
        <CharString name="Ugrave">
          -106 callgsubr
          -590 121 -74 callsubr
        </CharString>
        <CharString name="Uhungarumlaut">
          -106 callgsubr
          -356 185 -66 callsubr
        </CharString>
        <CharString name="Umacron">
          -106 callgsubr
          -269 62 -42 callgsubr
        </CharString>
        <CharString name="Uogonek">
          105 834 -52 callsubr
          -101 -101 callsubr
          13 hlineto
          -85 callsubr
          21 14 24 23 19 hvcurveto
          188 6 151 153 191 vvcurveto
          endchar
        </CharString>
        <CharString name="Uring">
          -106 callgsubr
          -490 121 rmoveto
          -78 callsubr
        </CharString>
        <CharString name="Utilde">
          -106 callgsubr
          -248 174 -99 callsubr
        </CharString>
        <CharString name="V">
          91 751 -52 callsubr
          -311 -592 -311 592 rlineto
          -114 hlineto
          368 -2 callgsubr
        </CharString>
        <CharString name="W">
          -97 callsubr
          endchar
        </CharString>
        <CharString name="Wacute">
          -97 callsubr
          -289 655 -96 callsubr
        </CharString>
        <CharString name="Wcircumflex">
          -97 callsubr
          -295 553 -102 callsubr
        </CharString>
        <CharString name="Wdieresis">
          -97 callsubr
          -491 550 -106 callsubr
        </CharString>
        <CharString name="Wgrave">
          -97 callsubr
          -658 569 -74 callsubr
        </CharString>
        <CharString name="X">
          30 136 -52 callsubr
          -131 hlineto
          339 -350 -339 -350 11 callgsubr
          273 282 274 -282 11 callgsubr
          -131 -52 callsubr
          -239 -247 65 -67 305 314 rlineto
          endchar
        </CharString>
        <CharString name="Y">
          -90 callgsubr
          endchar
        </CharString>
        <CharString name="Yacute">
          -90 callgsubr
          -239 707 -96 callsubr
        </CharString>
        <CharString name="Ycircumflex">
          -90 callgsubr
          -234 605 -102 callsubr
        </CharString>
        <CharString name="Ydieresis">
          -90 callgsubr
          -441 602 -106 callsubr
        </CharString>
        <CharString name="Ygrave">
          -90 callgsubr
          -598 621 -74 callsubr
        </CharString>
        <CharString name="Z">
          -62 callsubr
          endchar
        </CharString>
        <CharString name="Zacute">
          -62 callsubr
          -240 307 -96 callsubr
        </CharString>
        <CharString name="Zcaron">
          -62 callsubr
          -560 249 -91 callgsubr
        </CharString>
        <CharString name="Zdotaccent">
          -62 callsubr
          -360 212 -81 callsubr
        </CharString>
        <CharString name="a">
          -98 callsubr
          endchar
        </CharString>
        <CharString name="aacute">
          -98 callsubr
          -154 -37 callgsubr
        </CharString>
        <CharString name="abreve">
          -98 callsubr
          -172 752 -102 callgsubr
        </CharString>
        <CharString name="acircumflex">
          -98 callsubr
          -159 -54 callsubr
        </CharString>
        <CharString name="acute">
          -582 169 747 -96 callsubr
        </CharString>
        <CharString name="adieresis">
          -98 callsubr
          -355 662 -106 callsubr
        </CharString>
        <CharString name="ae">
          -47 callgsubr
          endchar
        </CharString>
        <CharString name="aeacute">
          -47 callgsubr
          -279 539 -96 callsubr
        </CharString>
        <CharString name="agrave">
          -98 callsubr
          -523 681 -74 callsubr
        </CharString>
        <CharString name="amacron">
          -98 callsubr
          -197 622 -42 callgsubr
        </CharString>
        <CharString name="ampersand">
          49 707 300 rmoveto
          100 100 -300 -100 100 -200 -350 -40 callsubr
          150 100 -150 hlineto
          -4 hlineto
          -53 2 -43 44 54 vvcurveto
          55 45 45 55 vhcurveto
          450 100 -450 -28 callgsubr
          -60 26 -54 42 -36 hvcurveto
          -42 -37 -26 -54 -59 vvcurveto
          1 callsubr
          450 hlineto
          endchar
        </CharString>
        <CharString name="aogonek">
          -99 callgsubr
          9 hlineto
          -87 callsubr
          21 hlineto
          endchar
        </CharString>
        <CharString name="approxequal">
          -128 595 221 rmoveto
          -58 callsubr
          200 vmoveto
          -58 callsubr
          endchar
        </CharString>
        <CharString name="aring">
          -98 callsubr
          -422 681 rmoveto
          -78 callsubr
        </CharString>
        <CharString name="asciicircum">
          -273 478 432 rmoveto
          -185 207 rlineto
          11 -10 -14 6 -14 hhcurveto
          -14 -14 -6 -11 -9 hvcurveto
          -178 -203 60 -63 156 177 159 -178 rlineto
          endchar
        </CharString>
        <CharString name="asciitilde">
          -128 595 321 rmoveto
          -58 callsubr
          endchar
        </CharString>
        <CharString name="asterisk">
          -243 433 675 rmoveto
          -120 -98 10 162 rlineto
          -100 hlineto
          9 -162 -119 98 -58 -81 149 -95 -149 -95 58 -81 119 97 -9 -161 rlineto
          100 hlineto
          -10 161 120 -97 58 81 -150 95 150 95 rlineto
          endchar
        </CharString>
        <CharString name="at">
          -92 416 289 rmoveto
          -121 hlineto
          -76 -28 -62 -42 -77 62 -27 42 hvcurveto
          250 hlineto
          77 27 62 42 hvcurveto
          187 vlineto
          123 -99 44 -67 vhcurveto
          -250 hlineto
          -123 -44 -100 -67 hvcurveto
          -250 vlineto
          -122 100 -44 67 vhcurveto
          62 83 -62 hlineto
          -20 -64 7 76 hvcurveto
          250 vlineto
          20 8 64 76 vhcurveto
          249 hlineto
          20 64 -8 -76 hvcurveto
          -187 vlineto
          -21 -14 0 -7 vhcurveto
          -21 146 hlineto
          76 -62 28 -42 vhcurveto
          -174 -83 174 hlineto
          21 0 -16 -5 hvcurveto
          -146 -146 vlineto
          -21 0 16 5 21 16 0 5 hvcurveto
          121 hlineto
          endchar
        </CharString>
        <CharString name="atilde">
          -98 callsubr
          -180 734 -99 callsubr
        </CharString>
        <CharString name="b">
          -34 723 164 rmoveto
          66 -40 58 -57 26 vhcurveto
          13 22 8 26 28 vvcurveto
          90 -74 72 -90 vhcurveto
          -411 -552 102 451 309 hlineto
          35 28 -26 -35 -34 -31 -25 -39 -2 hvcurveto
          -255 -101 337 hlineto
          36 28 -28 -36 -35 -28 -28 -36 hvcurveto
          -337 -101 337 hlineto
          91 74 73 91 hvcurveto
          endchar
        </CharString>
        <CharString name="backslash">
          -253 140 -52 callsubr
          -114 hlineto
          368 -700 10 callsubr
          endchar
        </CharString>
        <CharString name="bar">
          -537 176 850 rmoveto
          -100 -975 18 callgsubr
        </CharString>
        <CharString name="braceleft">
          -387 374 848 rmoveto
          -50 hlineto
          -99 -99 -62 -111 hvcurveto
          -5 -1 -63 -119 vvcurveto
          -58 -41 -17 -35 -28 -22 -23 -27 -28 22 -22 28 43 33 -31 -45 vhcurveto
          -1 -187 rlineto
          -128 119 -47 79 vhcurveto
          50 100 -50 hlineto
          -44 -54 22 53 hvcurveto
          1 188 rlineto
          39 -15 49 -35 36 vhcurveto
          30 28 20 41 57 123 1 63 1 vvcurveto
          1 vlineto
          52 51 20 47 vhcurveto
          50 hlineto
          endchar
        </CharString>
        <CharString name="braceright">
          -387 28 748 rmoveto
          50 hlineto
          47 51 -20 -52 hvcurveto
          -1 vlineto
          -1 1 -63 -123 vvcurveto
          -57 20 -41 30 -28 vhcurveto
          -35 -36 -15 -49 -39 vvcurveto
          1 -188 rlineto
          -53 -54 -22 -44 vhcurveto
          -50 -100 50 hlineto
          79 119 47 128 hvcurveto
          -1 187 rlineto
          45 33 31 43 28 22 22 28 27 -22 23 -28 -35 -41 17 58 vhcurveto
          119 -1 63 5 vvcurveto
          111 -99 62 -99 vhcurveto
          -50 hlineto
          endchar
        </CharString>
        <CharString name="bracketleft">
          -434 326 848 rmoveto
          -200 hlineto
          -28 -22 -22 -28 hvcurveto
          -873 vlineto
          -28 22 -22 28 vhcurveto
          200 100 -150 773 150 hlineto
          endchar
        </CharString>
        <CharString name="bracketright">
          -434 29 748 rmoveto
          150 -773 -150 -100 200 hlineto
          28 22 22 28 hvcurveto
          873 vlineto
          28 -22 22 -28 vhcurveto
          -200 hlineto
          endchar
        </CharString>
        <CharString name="breve">
          -503 286 732 -102 callgsubr
        </CharString>
        <CharString name="brokenbar">
          -533 178 850 rmoveto
          -100 -412 100 hlineto
          -150 vmoveto
          -100 -413 18 callgsubr
        </CharString>
        <CharString name="bullet">
          -430 278 356 rmoveto
          52 -45 45 -53 -55 -43 -45 -52 -55 43 -43 55 53 45 43 55 vhcurveto
          endchar
        </CharString>
        <CharString name="c">
          -81 callgsubr
          endchar
        </CharString>
        <CharString name="cacute">
          -81 callgsubr
          -141 -37 callgsubr
        </CharString>
        <CharString name="caron">
          -479 689 vmoveto
          -91 callsubr
        </CharString>
        <CharString name="ccaron">
          -81 callgsubr
          -421 -44 callsubr
        </CharString>
        <CharString name="ccedilla">
          -99 651 101 rmoveto
          -355 -97 callgsubr
          54 -76 callgsubr
          246 hlineto
          endchar
        </CharString>
        <CharString name="ccircumflex">
          -81 callgsubr
          -116 -54 callsubr
        </CharString>
        <CharString name="cdotaccent">
          -81 callgsubr
          -221 662 -81 callsubr
        </CharString>
        <CharString name="cedilla">
          -599 128 7 rmoveto
          -55 hlineto
          -30 -80 -79 callsubr
          endchar
        </CharString>
        <CharString name="cent">
          -247 484 249 rmoveto
          -243 hlineto
          -59 -48 49 59 60 48 49 59 hvcurveto
          243 98 -141 136 -93 -136 -9 hlineto
          -113 -92 -94 -112 -109 81 -98 110 hvcurveto
          23 -151 93 151 141 hlineto
          endchar
        </CharString>
        <CharString name="circumflex">
          -469 320 645 -102 callsubr
        </CharString>
        <CharString name="colon">
          -511 214 75 -13 callgsubr
          401 vmoveto
          -77 callsubr
        </CharString>
        <CharString name="comma">
          -29 callgsubr
        </CharString>
        <CharString name="copyright">
          -246 474 395 -25 callsubr
          -53 hmoveto
          -98 -79 -3 -9 vhcurveto
          -123 hlineto
          -9 -79 3 98 7 callsubr
          8 80 -4 -98 hvcurveto
          -66 -83 rmoveto
          -91 hlineto
          -7 -36 1 36 hvcurveto
          32 vlineto
          14 6 23 36 vhcurveto
          92 54 -92 hlineto
          -65 -29 -47 -44 hvcurveto
          -32 vlineto
          -67 56 -24 39 vhcurveto
          91 hlineto
          endchar
        </CharString>
        <CharString name="currency">
          -254 351 360 -25 callgsubr
          67 -71 rmoveto
          10 21 6 24 26 vvcurveto
          26 -6 24 -11 22 vhcurveto
          66 59 -67 70 -64 -58 rlineto
          15 -25 -28 9 -31 hhcurveto
          -32 -29 -9 -15 -25 hvcurveto
          -64 58 -66 -70 65 -60 rlineto
          -11 -21 -5 -25 -25 vvcurveto
          -25 5 -24 10 -22 vhcurveto
          -64 -58 66 -70 62 56 rlineto
          -15 26 30 -9 32 hhcurveto
          31 30 8 16 25 hvcurveto
          62 -56 67 70 rlineto
          endchar
        </CharString>
        <CharString name="d">
          -38 callsubr
          endchar
        </CharString>
        <CharString name="dagger">
          -365 262 563 rmoveto
          -7 callsubr
          -688 18 callgsubr
        </CharString>
        <CharString name="daggerdbl">
          -351 394 163 rmoveto
          -125 400 -7 callsubr
          -400 -125 -100 125 -188 100 188 125 hlineto
          endchar
        </CharString>
        <CharString name="dcaron">
          -38 callsubr
          -524 432 -91 callgsubr
        </CharString>
        <CharString name="dcroat">
          -48 callgsubr
        </CharString>
        <CharString name="degree">
          -489 51 606 rmoveto
          -50 29 -43 70 69 30 43 50 51 -25 43 -74 -66 -33 -43 -51 vhcurveto
          67 -64 callgsubr
        </CharString>
        <CharString name="dieresis">
          -535 91 642 -106 callsubr
        </CharString>
        <CharString name="divide">
          -147 396 525 -13 callgsubr
          200 -125 rmoveto
          -23 callgsubr
          -200 -125 rmoveto
          -77 callsubr
        </CharString>
        <CharString name="dollar">
          -254 498 287 rmoveto
          76 -61 61 -76 vhcurveto
          -192 hlineto
          -12 -9 9 12 11 8 10 13 hvcurveto
          294 98 -143 136 -93 -136 -58 hlineto
          -66 -53 -53 -66 -66 53 -53 66 hvcurveto
          192 hlineto
          22 17 -17 -22 -21 -17 -17 -22 hvcurveto
          -311 -98 177 -151 93 151 41 hlineto
          76 61 61 75 hvcurveto
          endchar
        </CharString>
        <CharString name="dotaccent">
          -699 90 642 -81 callsubr
        </CharString>
        <CharString name="dotlessi">
          -61 callsubr
          endchar
        </CharString>
        <CharString name="dotlessj">
          -50 callgsubr
          endchar
        </CharString>
        <CharString name="e">
          -90 callsubr
          endchar
        </CharString>
        <CharString name="eacute">
          -90 callsubr
          -58 539 -96 callsubr
        </CharString>
        <CharString name="ebreve">
          -90 callsubr
          -77 524 -102 callgsubr
        </CharString>
        <CharString name="ecaron">
          -90 callsubr
          -375 481 -91 callgsubr
        </CharString>
        <CharString name="ecircumflex">
          -90 callsubr
          -63 437 -102 callsubr
        </CharString>
        <CharString name="edieresis">
          -90 callsubr
          -259 434 -106 callsubr
        </CharString>
        <CharString name="edotaccent">
          -90 callsubr
          -175 434 -81 callsubr
        </CharString>
        <CharString name="egrave">
          -90 callsubr
          -427 453 -74 callsubr
        </CharString>
        <CharString name="eight">
          49 744 500 rmoveto
          -20 callsubr
          -250 hlineto
          -111 -89 -90 -110 -49 17 -45 30 -35 hvcurveto
          -58 -35 -39 -64 -72 vvcurveto
          -110 89 -90 111 vhcurveto
          350 -11 callgsubr
          72 -40 64 -58 35 hvcurveto
          30 35 18 45 49 vvcurveto
          -150 -200 rmoveto
          -41 callgsubr
          -350 hlineto
          12 callsubr
          50 100 rmoveto
          12 callsubr
          250 -39 callgsubr
          endchar
        </CharString>
        <CharString name="ellipsis">
          -9 205 75 -13 callgsubr
          260 hmoveto
          -84 callgsubr
          260 hmoveto
          -77 callsubr
        </CharString>
        <CharString name="emacron">
          -90 callsubr
          -102 394 -42 callgsubr
        </CharString>
        <CharString name="emdash">
          139 864 -6 callgsubr
          -800 -100 800 hlineto
          endchar
        </CharString>
        <CharString name="endash">
          -261 464 -6 callgsubr
          -400 -100 400 hlineto
          endchar
        </CharString>
        <CharString name="eng">
          -40 677 123 rmoveto
          427 -76 callsubr
          158 -38 216 -164 27 -200 rrcurveto
          -80 -16 -71 -61 -84 hhcurveto
          -43 callsubr
          47 vlineto
          endchar
        </CharString>
        <CharString name="eogonek">
          -75 callsubr
          425 hlineto
          -87 callsubr
          79 -66 callgsubr
          endchar
        </CharString>
        <CharString name="equal">
          -107 616 -41 callsubr
          -23 callgsubr
          -200 vmoveto
          -21 callsubr
        </CharString>
        <CharString name="eth">
          -48 callgsubr
        </CharString>
        <CharString name="exclam">
          -527 74 -52 callsubr
          21 -512 rlineto
          72 hlineto
          21 512 rlineto
          18 -625 rmoveto
          -77 callsubr
        </CharString>
        <CharString name="exclamdown">
          -527 188 hmoveto
          -21 512 rlineto
          -72 hlineto
          -21 -512 rlineto
          -18 625 rmoveto
          -41 -60 callgsubr
          41 -71 callgsubr
          vhcurveto
          endchar
        </CharString>
        <CharString name="f">
          -122 -38 callgsubr
          endchar
        </CharString>
        <CharString name="fi">
          121 -38 callgsubr
          256 322 rmoveto
          -4 callsubr
          99 hlineto
          endchar
        </CharString>
        <CharString name="five">
          -36 716 225 rmoveto
          124 -100 101 -125 vhcurveto
          -326 150 501 100 -601 -350 426 -13 callsubr
          -427 -100 427 hlineto
          125 100 -8 callsubr
          hvcurveto
          endchar
        </CharString>
        <CharString name="fl">
          489 -38 callgsubr
          683 -128 -36 callgsubr
          endchar
        </CharString>
        <CharString name="florin">
          -248 622 750 rmoveto
          -277 hlineto
          -143 -1 -129 -110 -139 vvcurveto
          -1 -425 hlineto
          -3 callsubr
          129 108 141 vvcurveto
          1 425 2 callgsubr
          277 hlineto
          -100 -150 rmoveto
          -300 -100 300 hlineto
          endchar
        </CharString>
        <CharString name="four">
          35 40 450 rmoveto
          1 callsubr
          400 -250 15 callgsubr
          -1 callsubr
          -400 -19 callsubr
          hvcurveto
          250 -100 vlineto
          endchar
        </CharString>
        <CharString name="fraction">
          -296 389 -7 callgsubr
          endchar
        </CharString>
        <CharString name="g">
          -85 callgsubr
          endchar
        </CharString>
        <CharString name="gbreve">
          -85 callgsubr
          -135 752 -102 callgsubr
        </CharString>
        <CharString name="gcircumflex">
          -85 callgsubr
          -118 -54 callsubr
        </CharString>
        <CharString name="gcommaaccent">
          -85 callgsubr
          -210 -69 callgsubr
        </CharString>
        <CharString name="gdotaccent">
          -85 callgsubr
          -233 662 -81 callsubr
        </CharString>
        <CharString name="germandbls">
          625 -92 callgsubr
          707 hmoveto
          -94 callgsubr
          endchar
        </CharString>
        <CharString name="grave">
          -582 661 vmoveto
          -73 callsubr
        </CharString>
        <CharString name="greater">
          -276 53 620 rmoveto
          318 -284 -317 -278 11 callgsubr
          275 240 -27 callsubr
          -277 247 rlineto
          endchar
        </CharString>
        <CharString name="guillemotleft">
          -122 264 488 rmoveto
          -50 callsubr
          100 hmoveto
          -50 callsubr
          endchar
        </CharString>
        <CharString name="guillemotright">
          -122 273 488 rmoveto
          -49 callgsubr
          -360 hmoveto
          -49 callgsubr
          endchar
        </CharString>
        <CharString name="guilsinglleft">
          -352 264 488 rmoveto
          -50 callsubr
          endchar
        </CharString>
        <CharString name="guilsinglright">
          -352 43 488 rmoveto
          -49 callgsubr
          endchar
        </CharString>
        <CharString name="h">
          -42 callsubr
          hlineto
          endchar
        </CharString>
        <CharString name="hbar">
          -42 callsubr
          387 325 95 -325 hlineto
          endchar
        </CharString>
        <CharString name="hcircumflex">
          -42 callsubr
          hlineto
          349 -54 callsubr
        </CharString>
        <CharString name="hungarumlaut">
          -485 113 725 -66 callsubr
        </CharString>
        <CharString name="hyphen">
          -111 614 -14 callgsubr
        </CharString>
        <CharString name="i">
          -61 callsubr
          endchar
        </CharString>
        <CharString name="iacute">
          -61 callsubr
          116 -37 callgsubr
        </CharString>
        <CharString name="ibreve">
          -61 callsubr
          94 772 -102 callgsubr
        </CharString>
        <CharString name="icircumflex">
          -61 callsubr
          111 -54 callsubr
        </CharString>
        <CharString name="idieresis">
          -61 callsubr
          -85 662 -106 callsubr
        </CharString>
        <CharString name="igrave">
          -61 callsubr
          -253 681 -74 callsubr
        </CharString>
        <CharString name="ij">
          152 -48 callsubr
          99 hlineto
          707 -65 callgsubr
          endchar
        </CharString>
        <CharString name="imacron">
          -61 callsubr
          68 642 -42 callgsubr
        </CharString>
        <CharString name="integral">
          -184 599 750 rmoveto
          -68 7 callgsubr
          -425 vlineto
          -3 callsubr
          116 109 13 140 rrcurveto
          1 425 2 callgsubr
          68 hlineto
          endchar
        </CharString>
        <CharString name="iogonek">
          -57 callgsubr
          8 hlineto
          -87 callsubr
          21 hlineto
          endchar
        </CharString>
        <CharString name="itilde">
          -61 callsubr
          90 754 -99 callsubr
        </CharString>
        <CharString name="j">
          -50 callgsubr
          endchar
        </CharString>
        <CharString name="jcircumflex">
          -50 callgsubr
          -126 390 -102 callsubr
        </CharString>
        <CharString name="k">
          -59 callgsubr
          endchar
        </CharString>
        <CharString name="kcommaaccent">
          -59 callgsubr
          -300 -93 -105 callsubr
        </CharString>
        <CharString name="kgreenlandic">
          -59 callgsubr
          endchar
        </CharString>
        <CharString name="l">
          -35 callsubr
          endchar
        </CharString>
        <CharString name="lacute">
          -35 callsubr
          -308 -37 callgsubr
        </CharString>
        <CharString name="lcaron">
          -35 callsubr
          -217 549 -105 callsubr
        </CharString>
        <CharString name="lcommaaccent">
          -35 callsubr
          -233 -113 -105 callsubr
        </CharString>
        <CharString name="ldotaccent">
          9 -40 callgsubr
          137 356 rmoveto
          -77 callsubr
        </CharString>
        <CharString name="less">
          -276 330 620 rmoveto
          -277 -247 -27 callgsubr
          275 -240 11 callgsubr
          -317 278 318 284 rlineto
          endchar
        </CharString>
        <CharString name="logicalnot">
          -202 515 -6 callgsubr
          -458 -99 359 -187 99 hlineto
          endchar
        </CharString>
        <CharString name="lslash">
          -102 478 428 rmoveto
          -230 -84 rlineto
          206 -100 -243 vlineto
          -130 -47 rlineto
          -110 vlineto
          130 47 rlineto
          -197 526 100 -426 134 vlineto
          230 84 rlineto
          endchar
        </CharString>
        <CharString name="m">
          60 475 264 rmoveto
          103 78 84 96 vhcurveto
          28 -451 100 550 -128 hlineto
          -92 -80 -47 -72 -50 hvcurveto
          72 -50 -83 47 -94 hhcurveto
          -128 -14 callsubr
          451 28 hlineto
          97 78 -78 -96 hvcurveto
          -277 100 vlineto
          endchar
        </CharString>
        <CharString name="macron">
          -553 236 602 -42 callgsubr
        </CharString>
        <CharString name="minus">
          -107 616 -14 callgsubr
        </CharString>
        <CharString name="mu">
          -75 174 63 rmoveto
          -40 47 61 -23 66 hhcurveto
          -72 callsubr
          -100 -89 callsubr
          -13 1 -12 -1 -425 vhcurveto
          18 callgsubr
        </CharString>
        <CharString name="multiply">
          -97 417 -8 callgsubr
          221 200 rlineto
          -143 hlineto
          -149 -135 -149 135 rlineto
          -143 hlineto
          220 -200 -220 -200 rlineto
          143 hlineto
          149 135 149 -135 rlineto
          143 hlineto
          endchar
        </CharString>
        <CharString name="n">
          -79 callgsubr
          endchar
        </CharString>
        <CharString name="nacute">
          -79 callgsubr
          -37 -37 callgsubr
        </CharString>
        <CharString name="napostrophe">
          122 184 748 -105 callgsubr
          655 -748 rmoveto
          -82 callgsubr
          endchar
        </CharString>
        <CharString name="nbspace">
          -414 endchar
        </CharString>
        <CharString name="ncaron">
          -79 callgsubr
          -358 -44 callsubr
        </CharString>
        <CharString name="ncommaaccent">
          -79 callgsubr
          -143 -103 -105 callsubr
        </CharString>
        <CharString name="nine">
          12 737 475 -6 callsubr
          -250 hlineto
          -125 -100 -101 -124 -124 100 -101 125 hvcurveto
          325 100 -325 9 callgsubr
          250 hlineto
          69 56 -56 -69 hvcurveto
          -250 vlineto
          -69 -56 -56 -69 vhcurveto
          -425 -100 425 10 callgsubr
        </CharString>
        <CharString name="notequal">
          -81 629 250 rmoveto
          -273 hlineto
          105 200 rlineto
          168 100 -115 hlineto
          59 111 rlineto
          -114 hlineto
          -59 -111 rlineto
          -321 -100 268 hlineto
          -105 -200 rlineto
          -163 -100 110 hlineto
          -57 -109 10 callsubr
          57 109 rlineto
          326 hlineto
          endchar
        </CharString>
        <CharString name="ntilde">
          -79 callgsubr
          -64 734 -99 callsubr
        </CharString>
        <CharString name="numbersign">
          -69 85 396 rmoveto
          127 hlineto
          -26 -119 rlineto
          -129 hlineto
          -22 -94 rlineto
          130 4 callsubr
          122 4 callsubr
          129 hlineto
          20 94 rlineto
          -128 hlineto
          26 119 -9 callsubr
          20 94 rlineto
          -131 6 callsubr
          -122 6 callsubr
          -126 hlineto
          204 -94 rmoveto
          122 hlineto
          -26 -119 rlineto
          -122 hlineto
          endchar
        </CharString>
        <CharString name="o">
          -107 callsubr
          endchar
        </CharString>
        <CharString name="oacute">
          -107 callsubr
          -75 491 -96 callsubr
        </CharString>
        <CharString name="obreve">
          -107 callsubr
          -98 476 -102 callgsubr
        </CharString>
        <CharString name="ocircumflex">
          -107 callsubr
          -81 389 -102 callsubr
        </CharString>
        <CharString name="odieresis">
          -107 callsubr
          -277 386 -106 callsubr
        </CharString>
        <CharString name="oe">
          445 1195 -67 callsubr
          -55 hlineto
          33 -41 -53 20 -60 hhcurveto
          -86 callgsubr
          60 53 19 34 41 hvcurveto
          -53 574 vlineto
          -575 276 rmoveto
          -88 callgsubr
          511 53 -59 callsubr
          endchar
        </CharString>
        <CharString name="ogonek">
          -599 54 8 rmoveto
          -40 -21 -14 -45 -27 -84 callsubr
          23 18 28 29 21 hvcurveto
          endchar
        </CharString>
        <CharString name="ograve">
          -107 callsubr
          -444 405 -74 callsubr
        </CharString>
        <CharString name="ohungarumlaut">
          -107 callsubr
          -180 469 -66 callsubr
        </CharString>
        <CharString name="omacron">
          -107 callsubr
          -123 346 -42 callgsubr
        </CharString>
        <CharString name="one">
          -476 229 -52 callsubr
          -200 -100 100 -600 18 callgsubr
        </CharString>
        <CharString name="onehalf">
          -53 440 -7 callgsubr
          -353 10 -11 callsubr
          512 -228 -46 callgsubr
        </CharString>
        <CharString name="onequarter">
          -27 440 658 -30 callgsubr
          -534 649 -11 callsubr
          endchar
        </CharString>
        <CharString name="onesuperior">
          -536 182 668 -11 callsubr
          endchar
        </CharString>
        <CharString name="ordfeminine">
          -280 454 591 rmoveto
          60 -49 50 -60 vhcurveto
          -241 -74 241 hlineto
          20 16 -15 -21 hvcurveto
          -152 -225 vlineto
          -21 -15 16 20 20 15 16 21 hvcurveto
          191 74 -191 hlineto
          -60 -50 -50 -60 -60 50 -49 60 hvcurveto
          298 hlineto
          -56 vmoveto
          -408 -70 408 hlineto
          endchar
        </CharString>
        <CharString name="ordmasculine">
          -250 495 533 rmoveto
          92 -75 76 -92 vhcurveto
          -118 hlineto
          -92 -75 -76 -92 -92 75 -74 92 -1 hvcurveto
          118 hlineto
          92 1 75 74 92 vvcurveto
          -74 hmoveto
          -52 -40 -42 -53 vhcurveto
          -118 hlineto
          -52 -41 42 52 52 41 41 52 1 hvcurveto
          118 hlineto
          53 -1 40 -41 -52 vvcurveto
          75 -223 rmoveto
          -453 -70 453 hlineto
          endchar
        </CharString>
        <CharString name="oslash">
          -72 callgsubr
          endchar
        </CharString>
        <CharString name="oslashacute">
          -72 callgsubr
          -75 491 -96 callsubr
        </CharString>
        <CharString name="otilde">
          -107 callsubr
          -102 458 -99 callsubr
        </CharString>
        <CharString name="p">
          -68 701 -8 callgsubr
          -20 callsubr
          -429 -550 99 451 -20 callgsubr
        </CharString>
        <CharString name="paragraph">
          142 36 450 rmoveto
          -34 callgsubr
          142 99 -142 hlineto
          -83 -67 68 83 83 67 67 83 hvcurveto
          207 -600 100 600 151 -600 15 callgsubr
          -558 hlineto
          -138 -112 -34 callsubr
          endchar
        </CharString>
        <CharString name="parenleft">
          -463 305 -103 rmoveto
          -2 2 -165 176 288 vvcurveto
          264 166 200 3 3 vhcurveto
          16 20 rlineto
          -126 hlineto
          -55 -80 -104 -181 -226 vvcurveto
          -240 99 -170 57 -78 vhcurveto
          132 hlineto
          endchar
        </CharString>
        <CharString name="parenright">
          -463 -125 vmoveto
          132 hlineto
          57 78 99 170 240 vvcurveto
          226 -104 181 -55 80 vhcurveto
          -126 hlineto
          16 -20 rlineto
          3 -3 166 -200 -264 vvcurveto
          -288 -165 -176 -2 -2 vhcurveto
          endchar
        </CharString>
        <CharString name="partialdiff">
          16 770 275 rmoveto
          55 -16 51 -28 43 vhcurveto
          -192 376 rlineto
          -114 hlineto
          134 -256 rlineto
          4 -19 -19 2 -19 hhcurveto
          -204 hlineto
          -151 -122 -124 -151 -151 122 -123 151 -1 hvcurveto
          204 hlineto
          151 1 122 123 151 vvcurveto
          -100 hmoveto
          -96 -77 -79 -96 vhcurveto
          -204 hlineto
          -96 -77 79 96 96 77 78 96 1 hvcurveto
          204 hlineto
          96 -1 77 -78 -96 vvcurveto
          endchar
        </CharString>
        <CharString name="percent">
          34 -71 callsubr
          endchar
        </CharString>
        <CharString name="period">
          -529 205 75 rmoveto
          -77 callsubr
        </CharString>
        <CharString name="periodcentered">
          -513 213 356 rmoveto
          -77 callsubr
        </CharString>
        <CharString name="perthousand">
          403 -71 callsubr
          872 -312 -26 callsubr
          -83 hmoveto
          -24 callgsubr
          endchar
        </CharString>
        <CharString name="plus">
          -165 587 -17 callgsubr
          endchar
        </CharString>
        <CharString name="plusminus">
          -129 605 -17 callgsubr
          -300 vmoveto
          -21 callsubr
        </CharString>
        <CharString name="q">
          -30 685 -63 rmoveto
          -98 93 rlineto
          83 46 50 93 107 vvcurveto
          -93 callsubr
          15 hlineto
          67 -63 rlineto
          71 339 rmoveto
          -82 -41 -69 -70 -20 vhcurveto
          -63 62 rlineto
          -140 hlineto
          71 -67 rlineto
          -84 -82 callsubr
          endchar
        </CharString>
        <CharString name="question">
          9 759 475 -6 callsubr
          -500 -100 500 -13 callsubr
          -125 hlineto
          -69 -56 -56 -69 hvcurveto
          -37 100 37 vlineto
          14 11 11 14 vhcurveto
          125 16 callgsubr
          -350 -400 rmoveto
          41 -34 34 -41 -42 -33 -34 -41 -41 33 -34 42 41 34 34 41 vhcurveto
          endchar
        </CharString>
        <CharString name="questiondown">
          9 39 225 rmoveto
          -124 101 -101 124 vhcurveto
          500 100 -500 9 callgsubr
          125 hlineto
          69 56 56 69 hvcurveto
          37 -100 -37 vlineto
          -14 -11 -11 -14 vhcurveto
          -125 15 callsubr
          350 -6 callgsubr
          -41 34 -34 41 42 33 34 41 41 -33 34 -42 -41 -34 -34 -41 vhcurveto
          endchar
        </CharString>
        <CharString name="quotedbl">
          -432 159 701 -10 callgsubr
          160 246 -10 callgsubr
          endchar
        </CharString>
        <CharString name="quotedblbase">
          -336 206 -65 callsubr
          190 hmoveto
          -86 callsubr
          endchar
        </CharString>
        <CharString name="quotedblleft">
          -346 243 576 rmoveto
          -44 -60 callgsubr
          37 -29 32 -36 5 vhcurveto
          9 33 12 20 0 vvcurveto
          -64 1 rlineto
          0 -41 -60 -1 -65 vhcurveto
          -190 hmoveto
          -44 -60 callgsubr
          37 -29 32 -36 5 vhcurveto
          9 33 12 20 0 vvcurveto
          -64 1 rlineto
          0 -41 -60 -1 -65 vhcurveto
          endchar
        </CharString>
        <CharString name="quotedblright">
          -348 199 623 rmoveto
          -86 callsubr
          190 hmoveto
          -86 callsubr
          endchar
        </CharString>
        <CharString name="quoteleft">
          -536 53 576 rmoveto
          -44 -60 callgsubr
          37 -29 32 -36 5 vhcurveto
          9 33 12 20 0 vvcurveto
          -64 1 rlineto
          0 -41 -60 -1 -65 vhcurveto
          endchar
        </CharString>
        <CharString name="quoteright">
          -538 199 623 rmoveto
          -86 callsubr
          endchar
        </CharString>
        <CharString name="quotesinglbase">
          -29 callgsubr
        </CharString>
        <CharString name="quotesingle">
          -572 159 701 -10 callgsubr
          endchar
        </CharString>
        <CharString name="r">
          -80 callsubr
          endchar
        </CharString>
        <CharString name="racute">
          -80 callsubr
          -180 747 -96 callsubr
        </CharString>
        <CharString name="rcaron">
          -80 callsubr
          -500 -44 callsubr
        </CharString>
        <CharString name="rcommaaccent">
          -80 callsubr
          -285 -103 -105 callsubr
        </CharString>
        <CharString name="registered">
          -272 461 547 -25 callsubr
          -94 89 rmoveto
          25 -18 27 -34 vhcurveto
          -161 -203 53 149 107 -21 hlineto
          -13 -8 -8 -14 vhcurveto
          -67 -54 hlineto
          112 -90 rlineto
          -2 -8 -7 0 -2 hhcurveto
          -123 hlineto
          -53 -35 47 54 7 callsubr
          55 33 -48 -54 hvcurveto
          -64 vlineto
          -33 -9 -22 -12 -15 vhcurveto
          -80 62 rlineto
          28 6 32 21 47 vvcurveto
          endchar
        </CharString>
        <CharString name="ring">
          -583 661 vmoveto
          -78 callsubr
        </CharString>
        <CharString name="s">
          -82 -92 callgsubr
          endchar
        </CharString>
        <CharString name="sacute">
          -82 -92 callgsubr
          -156 605 -96 callsubr
        </CharString>
        <CharString name="scaron">
          -82 -92 callgsubr
          -470 547 -91 callgsubr
        </CharString>
        <CharString name="scedilla">
          -82 675 162 rmoveto
          -95 callgsubr
          282 -76 callgsubr
          130 hlineto
          90 72 72 12 callgsubr
        </CharString>
        <CharString name="scircumflex">
          -82 -92 callgsubr
          -162 503 -102 callsubr
        </CharString>
        <CharString name="section">
          118 864 100 rmoveto
          36 -10 35 -17 29 vhcurveto
          17 30 10 34 36 vvcurveto
          -20 callsubr
          -409 -40 callsubr
          559 100 -559 -28 callgsubr
          -37 10 -34 17 -29 hvcurveto
          -17 -30 -10 -34 -36 vvcurveto
          1 callsubr
          409 -39 callgsubr
          -609 -100 609 -11 callgsubr
          hvcurveto
          -100 200 rmoveto
          -9 -2 -8 -2 -8 vhcurveto
          16 -28 -33 9 -35 hhcurveto
          -409 -19 callsubr
          8 1 9 2 8 hvcurveto
          -16 29 33 -9 35 hhcurveto
          409 hlineto
          -10 callsubr
          hvcurveto
          endchar
        </CharString>
        <CharString name="semicolon">
          -510 214 -65 callsubr
          404 vmoveto
          -77 callsubr
        </CharString>
        <CharString name="seven">
          -48 728 -52 callsubr
          -700 -100 563 hlineto
          -519 -600 rlineto
          137 hlineto
          519 600 rlineto
          endchar
        </CharString>
        <CharString name="six">
          12 764 225 -6 callsubr
          -325 -100 325 -13 callsubr
          -250 hlineto
          -69 -56 56 69 hvcurveto
          250 vlineto
          69 56 56 69 vhcurveto
          425 100 -425 15 callsubr
          -250 vlineto
          -124 101 -101 124 vhcurveto
          250 10 callgsubr
        </CharString>
        <CharString name="slash">
          -253 396 -52 callsubr
          -368 -2 callgsubr
        </CharString>
        <CharString name="space">
          -414 endchar
        </CharString>
        <CharString name="sterling">
          52 808 100 rmoveto
          -569 200 300 100 -300 25 2 callgsubr
          227 100 -227 7 callgsubr
          -50 -100 -100 100 -300 669 vlineto
          endchar
        </CharString>
        <CharString name="t">
          -28 callsubr
          endchar
        </CharString>
        <CharString name="tbar">
          -138 525 297 rmoveto
          -149 154 -15 callgsubr
          -154 -151 -100 151 -197 100 197 149 hlineto
          endchar
        </CharString>
        <CharString name="tcaron">
          -28 callsubr
          -206 -44 callsubr
        </CharString>
        <CharString name="tcommaaccent">
          -28 callsubr
          9 -69 callgsubr
        </CharString>
        <CharString name="thorn">
          -64 701 270 rmoveto
          -20 callsubr
          -330 80 -4 callsubr
          99 371 -20 callgsubr
        </CharString>
        <CharString name="three">
          -33 699 500 rmoveto
          -20 callsubr
          -450 -100 450 -39 callgsubr
          -324 -100 324 -39 callgsubr
          -450 -100 450 -11 callgsubr
          59 -27 54 -42 37 hvcurveto
          42 36 27 54 60 vvcurveto
          endchar
        </CharString>
        <CharString name="threequarters">
          95 337 -33 callsubr
          225 234 -30 callgsubr
          endchar
        </CharString>
        <CharString name="threesuperior">
          -372 356 -33 callsubr
          endchar
        </CharString>
        <CharString name="tilde">
          -511 278 714 -99 callsubr
        </CharString>
        <CharString name="trademark">
          59 617 553 rmoveto
          51 2 39 42 48 hhcurveto
          14 -233 54 287 -68 hlineto
          -47 -42 -25 -37 -26 hvcurveto
          37 -26 -43 25 -48 hhcurveto
          -67 -287 54 233 13 hlineto
          49 40 -40 -49 hvcurveto
          -144 54 vlineto
          -367 233 rmoveto
          136 54 -328 -54 137 -233 55 hlineto
          endchar
        </CharString>
        <CharString name="two">
          -42 695 100 rmoveto
          -551 100 hlineto
          55 46 45 55 vhcurveto
          250 -11 callgsubr
          110 -90 90 -110 hvcurveto
          -400 -100 400 -39 callgsubr
          -250 -28 callgsubr
          hvcurveto
          -200 650 vlineto
          endchar
        </CharString>
        <CharString name="twosuperior">
          -346 375 415 -46 callgsubr
        </CharString>
        <CharString name="u">
          -104 callgsubr
          endchar
        </CharString>
        <CharString name="uacute">
          -104 callgsubr
          -136 217 -96 callsubr
        </CharString>
        <CharString name="ubreve">
          -104 callgsubr
          -159 202 -102 callgsubr
        </CharString>
        <CharString name="ucircumflex">
          -104 callgsubr
          -142 115 -102 callsubr
        </CharString>
        <CharString name="udieresis">
          -104 callgsubr
          -338 112 -106 callsubr
        </CharString>
        <CharString name="ugrave">
          -104 callgsubr
          -505 131 -74 callsubr
        </CharString>
        <CharString name="uhungarumlaut">
          -104 callgsubr
          -271 195 -66 callsubr
        </CharString>
        <CharString name="umacron">
          -104 callgsubr
          -184 72 -42 callgsubr
        </CharString>
        <CharString name="underscore">
          -119 610 -88 rmoveto
          -21 callsubr
        </CharString>
        <CharString name="uni00AD">
          -111 614 -14 callgsubr
        </CharString>
        <CharString name="uni0312">
          -536 68 711 rmoveto
          -36 27 -27 33 33 27 27 33 30 -23 25 -29 4 vhcurveto
          7 27 10 16 0 vvcurveto
          -51 1 rlineto
          0 -33 -48 -1 -52 vhcurveto
          endchar
        </CharString>
        <CharString name="uni0315">
          -538 184 748 -105 callsubr
        </CharString>
        <CharString name="uni0326">
          -526 191 -153 -105 callsubr
        </CharString>
        <CharString name="uogonek">
          -93 callgsubr
          -150 121 -123 149 -2 vhcurveto
          -87 callsubr
          146 6 117 121 148 vvcurveto
          -4 callgsubr
          endchar
        </CharString>
        <CharString name="uring">
          -104 callgsubr
          -405 131 rmoveto
          -78 callsubr
        </CharString>
        <CharString name="utilde">
          -104 callgsubr
          -163 184 -99 callsubr
        </CharString>
        <CharString name="v">
          -85 578 -41 callsubr
          -225 -439 -226 439 rlineto
          -114 hlineto
          283 -550 10 callsubr
          281 550 rlineto
          endchar
        </CharString>
        <CharString name="w">
          -94 callsubr
          endchar
        </CharString>
        <CharString name="wacute">
          -94 callsubr
          -188 566 -96 callsubr
        </CharString>
        <CharString name="wcircumflex">
          -94 callsubr
          -193 464 -102 callsubr
        </CharString>
        <CharString name="wdieresis">
          -94 callsubr
          -389 461 -106 callsubr
        </CharString>
        <CharString name="wgrave">
          -94 callsubr
          -557 480 -74 callsubr
        </CharString>
        <CharString name="x">
          -110 140 -41 callsubr
          -132 hlineto
          266 -276 -266 -274 -9 callsubr
          200 206 200 -206 11 callgsubr
          -131 -41 callsubr
          -171 -178 65 -68 237 246 rlineto
          endchar
        </CharString>
        <CharString name="y">
          -87 callgsubr
          endchar
        </CharString>
        <CharString name="yacute">
          -87 callgsubr
          -150 625 -96 callsubr
        </CharString>
        <CharString name="ycircumflex">
          -87 callgsubr
          -148 483 -102 callsubr
        </CharString>
        <CharString name="ydieresis">
          -87 callgsubr
          -351 500 -106 callsubr
        </CharString>
        <CharString name="yen">
          86 842 -56 callgsubr
          -200 hlineto
          -83 -68 -67 -82 vhcurveto
          -309 -70 callsubr
          104 -50 -152 -100 152 -100 100 100 148 100 -148 50 105 hlineto
          -36 callsubr
          138 hvcurveto
          endchar
        </CharString>
        <CharString name="ygrave">
          -87 callgsubr
          -511 519 -74 callsubr
        </CharString>
        <CharString name="z">
          -62 callgsubr
          endchar
        </CharString>
        <CharString name="zacute">
          -62 callgsubr
          -150 316 -96 callsubr
        </CharString>
        <CharString name="zcaron">
          -62 callgsubr
          -470 258 -91 callgsubr
        </CharString>
        <CharString name="zdotaccent">
          -62 callgsubr
          -270 211 -81 callsubr
        </CharString>
        <CharString name="zero">
          112 854 -16 callgsubr
          -163 -100 callgsubr
          163 13 callgsubr
          hvcurveto
          -100 hmoveto
          -138 -84 -58 callgsubr
          -163 hlineto
          -138 -84 -74 callgsubr
          138 84 -31 callgsubr
          163 hlineto
          138 84 -34 callsubr
          endchar
        </CharString>
      <CharString index="0">
        920 350 rmoveto
        -95 callsubr
        193 128 -53 callgsubr
        -100 hmoveto
        5 callgsubr
        -138 -84 -74 callgsubr
        138 84 -31 callgsubr
        -1 callgsubr
        138 83 -34 callsubr
        return
      </CharString>
      <CharString index="1">
        105 833 700 rmoveto
        -100 -101 callsubr
        74 -12 callsubr
        156 -53 callgsubr
        1 350 rlineto
        return
      </CharString>
      <CharString index="2">
        rmoveto
        35 -27 28 -33 -33 -27 -28 -32 -31 22 -25 29 -4 vhcurveto
        -6 -26 -10 -16 0 vvcurveto
        51 -1 rlineto
        0 32 48 2 52 vhcurveto
        return
      </CharString>
      <CharString index="3">
        -93 callgsubr
        -151 123 -124 151 vhcurveto
        -72 callsubr
        vlineto
        return
      </CharString>
      <CharString index="4">
        hlineto
        -138 -84 -74 callgsubr
        138 84 -31 callgsubr
        451 100 -451 -100 callgsubr
        return
      </CharString>
      <CharString index="5">
        rmoveto
        -66 hlineto
        -17 -5 -16 -35 -56 hhcurveto
        -56 -15 35 17 -6 hvcurveto
        -66 hlineto
        -35 2 20 -99 121 hhcurveto
        121 20 99 35 2 hvcurveto
        endchar
      </CharString>
      <CharString index="6">
        -103 callgsubr
        451 hlineto
        return
      </CharString>
      <CharString index="7">
        -83 callgsubr
        -194 128 -156 -16 callsubr
        return
      </CharString>
      <CharString index="8">
        -16 701 552 rmoveto
        -360 -98 callgsubr
        return
      </CharString>
      <CharString index="9">
        hlineto
        -153 -125 -124 -153 hvcurveto
        -275 101 -4 callgsubr
        97 79 79 98 0 callsubr
        -198 -385 -102 385 -151 return
      </CharString>
      <CharString index="10">
        hlineto
        -97 -59 77 99 97 59 77 97 3 callsubr
        101 -355 hlineto
        -155 -102 -122 -153 -155 102 -122 3 callgsubr
        return
      </CharString>
      <CharString index="11">
        -97 callgsubr
        355 hlineto
        return
      </CharString>
      <CharString index="12">
        89 -72 74 -90 vhcurveto
        -306 hlineto
        -34 -28 28 35 34 28 29 34 hvcurveto
        431 99 -431 hlineto
        -88 -73 -74 -88 -90 73 -73 88 hvcurveto
        306 hlineto
        35 28 -28 -35 -35 -28 -27 -35 hvcurveto
        -467 -100 return
      </CharString>
      <CharString index="13">
        -95 callgsubr
        467 hlineto
        90 72 4 callgsubr
        return
      </CharString>
      <CharString index="14">
        -60 566 -41 callsubr
        -89 callsubr
        return
      </CharString>
      <CharString index="15">
        675 162 rmoveto
        -94 callgsubr
        return
      </CharString>
      <CharString index="16">
        rmoveto
        -91 callsubr
      </CharString>
      <CharString index="17">
        155 866 -12 callgsubr
        -459 -70 callsubr
        459 -50 hlineto
        -55 -68 -45 -82 vhcurveto
        -559 -100 559 hlineto
        -33 callgsubr
        89 111 hvcurveto
        return
      </CharString>
      <CharString index="18">
        -75 callgsubr
        724 -67 callgsubr
        return
      </CharString>
      <CharString index="19">
        -97 -57 -79 -96 vhcurveto
        -174 -82 callsubr
        return
      </CharString>
      <CharString index="20">
        -40 682 -41 callsubr
        -100 -263 -331 hlineto
        -55 -45 44 56 hvcurveto
        163 -99 -163 vlineto
        -110 89 -9 callgsubr
        331 -25 hlineto
        -35 -45 -27 -55 vhcurveto
        -430 -100 430 -18 callgsubr
        4 callgsubr
        return
      </CharString>
      <CharString index="21">
        -70 callgsubr
        -152 101 -124 153 hvcurveto
        174 hlineto
        return
      </CharString>
      <CharString index="22">
        -83 651 329 rmoveto
        -388 -101 287 -127 -254 -96 callgsubr
        return
      </CharString>
      <CharString index="23">
        41 -71 callgsubr
        -41 -60 callgsubr
        vhcurveto
        return
      </CharString>
      <CharString index="24">
        hlineto
        -194 -128 -157 -193 return
      </CharString>
      <CharString index="25">
        550 -76 callsubr
        169 -40 236 -184 -219 vvcurveto
        return
      </CharString>
      <CharString index="26">
        -99 651 101 rmoveto
        -355 -96 callgsubr
        return
      </CharString>
      <CharString index="27">
        153 184 596 rmoveto
        226 -35 348 -253 -308 vvcurveto
        15 callgsubr
        -64 callsubr
        hlineto
        return
      </CharString>
      <CharString index="28">
        -40 677 hmoveto
        -82 callgsubr
        return
      </CharString>
      <CharString index="29">
        -25 -20 -21 -24 -25 20 -20 25 return
      </CharString>
      <CharString index="30">
        705 -52 callsubr
        -11 -14 rlineto
        9 -30 -31 5 -34 1 callgsubr
        -125 52 -109 90 -62 hvcurveto
        -44 -54 rlineto
        119 hlineto
        10 13 rlineto
        -9 30 31 -4 34 hhcurveto
        6 callgsubr
        123 -53 109 -88 62 hvcurveto
        45 56 rlineto
        -225 -100 rmoveto
        8 8 -1 -1 8 hvcurveto
        -374 -465 rlineto
        -67 43 -38 81 93 vvcurveto
        138 84 -74 callgsubr
        vhcurveto
        454 -250 rmoveto
        5 callgsubr
        -8 -8 1 -8 hhcurveto
        374 465 rlineto
        66 -43 38 -81 -92 vvcurveto
        return
      </CharString>
      <CharString index="31">
        hlineto
        -27 -73 -79 callsubr
        9 24 rlineto
        return
      </CharString>
      <CharString index="32">
        59 808 -68 callsubr
        -700 return
      </CharString>
      <CharString index="33">
        112 138 return
      </CharString>
      <CharString index="34">
        -29 callsubr
        -558 -21 callgsubr
        -51 callgsubr
        return
      </CharString>
      <CharString index="35">
        -30 552 551 rmoveto
        -10 -12 rlineto
        7 -23 -26 4 -26 8 callgsubr
        -90 35 -80 61 -51 hvcurveto
        -46 -55 rlineto
        119 hlineto
        9 11 rlineto
        -7 24 25 -4 27 hhcurveto
        9 callsubr
        89 -36 80 -60 50 hvcurveto
        47 56 rlineto
        -204 -100 rmoveto
        1 hlineto
        -269 -319 rlineto
        -39 32 -21 52 60 vvcurveto
        96 58 79 96 vhcurveto
        327 -175 14 callgsubr
        -1 hlineto
        268 319 rlineto
        38 -32 22 -52 -59 vvcurveto
        return
      </CharString>
      <CharString index="36">
        -34 34 -41 -41 -34 -34 -41 return
      </CharString>
      <CharString index="37">
        -174 hlineto
        -153 -101 -123 -151 return
      </CharString>
      <CharString index="38">
        -123 -105 callsubr
      </CharString>
      <CharString index="39">
        403 hlineto
        138 84 -69 callsubr
        -138 -84 -34 callsubr
        -353 -100 353 13 callgsubr
        return
      </CharString>
      <CharString index="40">
        hlineto
        -85 400 -51 callsubr
        return
      </CharString>
      <CharString index="41">
        hlineto
        -64 329 -59 callsubr
        return
      </CharString>
      <CharString index="42">
        -41 callsubr
        -597 -99 498 -176 hlineto
        -97 -79 -78 -96 vhcurveto
        -43 callsubr
        return
      </CharString>
      <CharString index="43">
        hmoveto
        19 11 15 23 22 12 -15 -19 -19 -12 -15 -22 -23 -11 15 19 vhcurveto
        endchar
      </CharString>
      <CharString index="44">
        100 rmoveto
        -624 500 624 100 return
      </CharString>
      <CharString index="45">
        -75 672 -41 callsubr
        -630 -99 478 hlineto
        -478 -351 rlineto
        -100 630 100 -475 vlineto
        475 351 rlineto
        return
      </CharString>
      <CharString index="46">
        -57 callsubr
        100 hlineto
        return
      </CharString>
      <CharString index="47">
        34 -34 41 41 34 34 41 return
      </CharString>
      <CharString index="48">
        -62 401 321 rmoveto
        317 229 rlineto
        -153 hlineto
        -393 -280 rlineto
        280 -100 -14 callsubr
        155 vlineto
        152 110 264 -265 rlineto
        135 hlineto
        return
      </CharString>
      <CharString index="49">
        -69 callsubr
        vhcurveto
        return
      </CharString>
      <CharString index="50">
        -546 -48 callsubr
        return
      </CharString>
      <CharString index="51">
        -52 callsubr
        -100 return
      </CharString>
      <CharString index="52">
        209 549 -6 callgsubr
        -320 200 -68 callgsubr
        16 callsubr
        hvcurveto
        -503 -300 -130 -100 130 -300 100 300 320 hlineto
        endchar
      </CharString>
      <CharString index="53">
        805 -102 callsubr
      </CharString>
      <CharString index="54">
        -47 callsubr
        hvcurveto
        return
      </CharString>
      <CharString index="55">
        184 -35 callgsubr
        return
      </CharString>
      <CharString index="56">
        458 hlineto
        83 67 -67 -83 -83 -67 -68 -83 hvcurveto
        -402 -99 return
      </CharString>
      <CharString index="57">
        -91 635 -65 callgsubr
        return
      </CharString>
      <CharString index="58">
        248 -222 -246 -216 -9 callsubr
        203 178 -27 callsubr
        -207 185 rlineto
        return
      </CharString>
      <CharString index="59">
        49 467 320 rmoveto
        -218 131 -55 callsubr
        153 -103 122 -154 hvcurveto
        -395 -232 -130 -100 130 -220 102 220 218 hlineto
        endchar
      </CharString>
      <CharString index="60">
        426 1176 -63 callsubr
        -835 -98 callgsubr
        575 -66 callgsubr
        return
      </CharString>
      <CharString index="61">
        rmoveto
        -228 33 hlineto
        5 2 5 7 vhcurveto
        127 hlineto
        36 56 25 67 hvcurveto
        26 vlineto
        -22 callsubr
        0 4 0 5 -9 vhcurveto
        -25 vlineto
        -6 -3 -3 -7 vhcurveto
        -126 hlineto
        -67 -25 -56 -36 hvcurveto
        -118 311 vlineto
        endchar
      </CharString>
      <CharString index="62">
        rmoveto
        -31 callsubr
        -24 -25 return
      </CharString>
      <CharString index="63">
        0 callgsubr
        -100 -275 vlineto
        return
      </CharString>
      <CharString index="64">
        849 -91 callgsubr
      </CharString>
      <CharString index="65">
        rmoveto
        82 -236 -82 vlineto
        endchar
      </CharString>
      <CharString index="66">
        -10 callsubr
        -55 -45 -45 -55 hvcurveto
        return
      </CharString>
      <CharString index="67">
        598 100 -36 callgsubr
        return
      </CharString>
      <CharString index="68">
        hlineto
        -41 callgsubr
        return
      </CharString>
      <CharString index="69">
        647 552 rmoveto
        -575 -552 101 451 474 hlineto
        -65 -122 -59 callsubr
        return
      </CharString>
      <CharString index="70">
        767 -96 callsubr
      </CharString>
      <CharString index="71">
        rmoveto
        -426 450 -100 -550 526 hlineto
        return
      </CharString>
      <CharString index="72">
        -56 callgsubr
        -700 return
      </CharString>
      <CharString index="73">
        -138 -5 callsubr
        138 vhcurveto
        return
      </CharString>
      <CharString index="74">
        138 112 return
      </CharString>
      <CharString index="75">
        hlineto
        56 45 -45 -56 -55 -45 -47 -56 hvcurveto
        return
      </CharString>
      <CharString index="76">
        -74 callgsubr
        hvcurveto
        return
      </CharString>
      <CharString index="77">
        -45 callsubr
        181 -302 rmoveto
        -83 -127 -145 127 -83 -168 hlineto
        -23 19 -19 23 vhcurveto
        186 -127 83 hlineto
        return
      </CharString>
      <CharString index="78">
        -526 206 -65 callsubr
        endchar
      </CharString>
      <CharString index="79">
        hlineto
        -110 -90 -90 -110 return
      </CharString>
      <CharString index="80">
        rlineto
        -11 -10 -6 -14 -14 vvcurveto
        -14 6 -14 11 -9 vhcurveto
        return
      </CharString>
      <CharString index="81">
        39 464 600 rmoveto
        -15 callsubr
        -600 100 hlineto
        return
      </CharString>
      <CharString index="82">
        rmoveto
        -46 -37 -37 -46 -46 -38 37 46 46 38 37 46 46 37 -37 -46 vhcurveto
        return
      </CharString>
      <CharString index="83">
        -46 -37 -38 -46 -46 -38 38 46 45 38 38 46 46 37 -38 -45 vhcurveto
        return
      </CharString>
      <CharString index="84">
        -550 -100 550 hlineto
        return
      </CharString>
      <CharString index="85">
        118 823 -56 callgsubr
        -300 -39 callsubr
        -300 100 hlineto
        -639 -35 callgsubr
        100 hlineto
        return
      </CharString>
      <CharString index="86">
        -700 100 600 return
      </CharString>
      <CharString index="87">
        330 -32 callgsubr
        -278 -99 278 -18 callgsubr
        92 109 hvcurveto
        endchar
      </CharString>
      <CharString index="88">
        hlineto
        111 89 89 111 hvcurveto
        return
      </CharString>
      <CharString index="89">
        -2 callsubr
        90 return
      </CharString>
      <CharString index="90">
        -6 callgsubr
        -225 -17 callsubr
        -225 -100 225 -200 100 200 225 hlineto
        return
      </CharString>
      <CharString index="91">
        350 rmoveto
        16 callsubr
        vhcurveto
        return
      </CharString>
      <CharString index="92">
        264 99 -629 -99 265 return
      </CharString>
      <CharString index="93">
        -6 callgsubr
        -21 callsubr
      </CharString>
      <CharString index="94">
        rmoveto
        -84 callgsubr
        return
      </CharString>
      <CharString index="95">
        -56 callgsubr
        -350 return
      </CharString>
      <CharString index="96">
        -18 callgsubr
        90 110 return
      </CharString>
      <CharString index="97">
        rmoveto
        -100 hlineto
        19 -246 rlineto
        61 hlineto
        return
      </CharString>
      <CharString index="98">
        -90 110 vhcurveto
        return
      </CharString>
      <CharString index="99">
        350 rmoveto
        return
      </CharString>
      <CharString index="100">
        658 -45 callsubr
        return
      </CharString>
      <CharString index="101">
        400 rmoveto
        return
      </CharString>
      <CharString index="102">
        -33 133 66 rlineto
        return
      </CharString>
      <CharString index="103">
        275 vlineto
        return
      </CharString>
      <CharString index="104">
        hvcurveto
        -350 return
      </CharString>
      <CharString index="105">
        -700 10 callsubr
        368 700 rlineto
        endchar
      </CharString>
      <CharString index="106">
        233 hlineto
        return
      </CharString>
      <CharString index="107">
        hvcurveto
        275 return
      </CharString>
      <CharString index="108">
        hhcurveto
        5 callsubr
        return
      </CharString>
      <CharString index="109">
        hlineto
        96 77 78 96 1 vhcurveto
        return
      </CharString>
      <CharString index="110">
        155 hvcurveto
        return
      </CharString>
      <CharString index="111">
        72 90 hvcurveto
        return
      </CharString>
      <CharString index="112">
        -138 -83 -58 callgsubr
        -233 hlineto
        return
      </CharString>
      <CharString index="113">
        233 -12 callsubr
        128 -47 callsubr
        return
      </CharString>
      <CharString index="114">
        hlineto
        -143 -1 -130 -108 -141 vvcurveto
        return
      </CharString>
      <CharString index="115">
        hhcurveto
        -70 callgsubr
        return
      </CharString>
      <CharString index="116">
        hlineto
        -69 -56 56 69 69 56 56 69 hvcurveto
        return
      </CharString>
      <CharString index="117">
        16 callgsubr
        endchar
      </CharString>
      <CharString index="118">
        rlineto
        131 hlineto
        return
      </CharString>
      <CharString index="119">
        90 hvcurveto
        endchar
      </CharString>
      <CharString index="120">
        -12 callsubr
        129 -47 callsubr
        return
      </CharString>
      <CharString index="121">
        rmoveto
        17 callgsubr
        return
      </CharString>
      <CharString index="122">
        100 700 return
      </CharString>
      <CharString index="123">
        hlineto
        124 101 -8 callsubr
        hvcurveto
        return
      </CharString>
      <CharString index="124">
        -97 -57 -79 -96 vhcurveto
        -174 hlineto
        return
      </CharString>
      <CharString index="125">
        100 hlineto
        endchar
      </CharString>
</ttFont>
